<svg height="0" width="0"><defs><clipPath id="svgPath-bg-section@1024"><path fill="#FFF" stroke="#000" stroke-width="1.579" stroke-miterlimit="10" d="M247 12.323c107.129-1.357 142.033 0 274.173-9.627 132.14-9.628 218.165 9.627 243.815 9.627 25.65 0 194.512 0 276.452 14 81.94 13.998 140.98-15.58 231.56-14 70.3 1.227 179.5 14 179.5 14V549.53s-109.42-1.745-179.5 0c-101.16 2.518-73.39 24.498-258.64 15.748-185.247-8.749-130.385-29.172-256.497-5.249-126.113 23.923-148.267 14.091-270.038 5.249-156.604 5.055-181.928-9.862-240.825-15.748-58.897-5.887-246.5 0-246.5 0V12.323s64.767 14 100.5 14c60.531 0 85.474-13.233 146-14z"/></clipPath></defs></svg>