<svg height="0" width="0"><defs><clipPath id="svgPath-bg-section@1450"><path fill="#FFF" stroke="#000" stroke-width="1.579" stroke-miterlimit="10" d="M273 12.323c151.952-10.364 201.975 0 389.882-9.627 187.906-9.628 310.236 9.627 346.708 9.627 36.48 0 276.6 0 393.12 14 116.52 13.998 200.68-9 329.29-14 104.65-4.068 268-9.627 268-9.627v562.583s-163.17-14.081-268-15.748c-143.74-2.287-104.36 24.498-367.79 15.748-263.43-8.749-185.41-29.172-364.749-5.249-179.336 23.923-210.84 14.091-384.001 5.249-222.696 5.055-258.707-9.862-342.46-15.748-83.753-5.887-273 15.748-273 15.748V12.323s67.342 12.285 111 14c63.452 2.491 98.646-9.678 162-14z"/></clipPath></defs></svg>