<svg width="77" height="77" viewBox="0 0 77 77" fill="none" xmlns="http://www.w3.org/2000/svg">
<path d="M32.3652 31.8227H41.509V30.1684H44.0957L38.5012 12.9336L32.3652 31.8227Z" fill="#69C9C9"/>
<path d="M26.6945 44.8465L29.5219 36.1539L27.9578 35.6426L28.7549 33.1761H10.6328L26.6945 44.8465Z" fill="#69C9C9"/>
<path d="M37.343 54.2609L29.9438 48.8769L28.9813 50.2154L26.8758 48.6964L21.2812 65.9312L37.343 54.2609Z" fill="#69C9C9"/>
<path d="M49.5838 47.0421L42.1846 52.4111L43.1621 53.7495L41.0566 55.2835L55.7197 65.9312L49.5838 47.0421Z" fill="#69C9C9"/>
<path d="M46.502 33.1761L49.3293 41.8687L50.9084 41.3574L51.7055 43.8238L66.3685 33.1761H46.502Z" fill="#69C9C9"/>
<path d="M38.5 30.1682H35.4922V33.176H38.5V30.1682Z" fill="#4D5152"/>
<path d="M27.029 38.5049L26.0996 41.3656L28.9603 42.295L29.8898 39.4343L27.029 38.5049Z" fill="#4D5152"/>
<path d="M33.1821 49.5603L31.4141 51.9937L33.8474 53.7616L35.6154 51.3283L33.1821 49.5603Z" fill="#4D5152"/>
<path d="M46.2614 47.7779L43.8281 49.5459L45.5961 51.9792L48.0294 50.2112L46.2614 47.7779Z" fill="#4D5152"/>
<path d="M49.0482 35.6433L46.1875 36.5728L47.1169 39.4335L49.9776 38.5041L49.0482 35.6433Z" fill="#4D5152"/>
<path d="M52.683 46.8316L75.6176 30.1683H47.2689L38.5012 3.20325L29.7334 30.1683H1.38477L24.3193 46.8316L15.5666 73.7966L43.1633 53.7495L41.3887 51.3132L21.2814 65.9312L26.876 48.6964L28.9814 50.2154L30.741 47.779L10.6338 33.1761H28.7559L27.9588 35.6425L30.8162 36.5749L38.5012 12.9335L44.0957 30.1683H41.509V33.1761H66.3686L51.7055 43.8238L50.9084 41.3573L48.0359 42.2898L55.7209 65.9312L42.1857 56.0956L40.4111 58.532L61.4357 73.7966L52.683 46.8316Z" fill="#4D5152"/>
</svg>
