<svg width="80" height="79" viewBox="0 0 80 79" fill="none" xmlns="http://www.w3.org/2000/svg"><path d="M56.781 19.21v15.661H55.22v9.258h1.562V59.79h18.532V19.21H56.78zm9.266 32.217c-.86 0-1.563-.694-1.563-1.543s.704-1.543 1.563-1.543c.86 0 1.562.694 1.562 1.543s-.703 1.543-1.562 1.543z" fill="#E6E6E6"/><path d="M24.313 45.58h3.125v-1.544h13.03V25.721H11.282v18.315h13.031v1.543z" fill="#69C9C9"/><path d="M1.563 53.634h22.75v6.157h-4.079v3.086h11.297V59.79h-4.078v-6.157h22.75V16.14H1.563v37.494zm3.125-34.423h42.374v31.322H4.688V19.21z" fill="#4D5152"/><path d="M8.156 47.122h16.157v-3.086H11.28V25.721h29.19v18.315H27.437v3.086h16.157V22.635H8.156v24.487zm64.032-22.635H59.906v3.086h12.282v-3.086zm0 6.172H59.906v3.086h12.282v-3.086zm-6.141 14.596c-2.578 0-4.688 2.083-4.688 4.63 0 2.545 2.11 4.628 4.688 4.628s4.687-2.083 4.687-4.629c0-2.546-2.109-4.629-4.687-4.629zm0 6.172c-.86 0-1.563-.694-1.563-1.543s.704-1.543 1.563-1.543c.86 0 1.562.694 1.562 1.543s-.703 1.543-1.562 1.543zm-9.266-13.47h-3.125v3.086h3.125v-3.086z" fill="#4D5152"/><path d="M53.656 16.124v18.747h3.125V19.21h18.532v40.58H56.78V44.129h-3.125v18.747h24.782V16.124H53.656z" fill="#4D5152"/></svg>