<svg width="57" height="57" viewBox="0 0 57 57" fill="none" xmlns="http://www.w3.org/2000/svg"><path d="M31.784 39.622h-6.557v3.195h6.557v-3.195zm-4.397 15.151h2.226V53.66h9.463v-3.195H17.924v3.195h9.463v1.114zm18.781-38.441h1.113V8.717h4.286V23.01h-5.399v-6.68zm-35.335 0H9.72V8.717H5.434V23.01h5.399v-6.68z" fill="#E6E6E6"/><path d="M31.651 20.663l1.96 6-5.11-3.707-5.11 3.707 1.96-6-5.11-3.708h6.311l1.949-6 1.948 6h6.312l-5.11 3.708z" fill="#69C9C9"/><path d="M43.609 14.729H32.064L28.502 3.752l-3.563 10.977H13.395l9.34 6.79-3.563 10.978 9.34-6.791 9.341 6.79-3.562-10.976 9.318-6.791zm-15.107 8.227l-5.11 3.707 1.948-6-5.11-3.708h6.312l1.96-6 1.948 6h6.312l-5.11 3.708 1.949 6-5.1-3.707zm-16.557-4.398H9.72v2.227h2.226v-2.227zm35.336 0h-2.226v2.227h2.226v-2.227z" fill="#4D5152"/><path d="M47.282 6.49V1.113H9.72V6.49H3.207v18.748H9.72v4.643l7.403 9.74h5.878v3.196h-2.427v5.422h-4.876v7.648h11.69V53.66h-9.463v-3.195h21.152v3.195h-9.463v2.227h11.69v-7.648h-4.866v-5.422h-2.427v-3.195h5.879l7.403-9.741v-4.643h6.513V6.49h-6.524zM34.2 48.238H22.8v-3.195h11.41v3.196h-.01zm-2.427-5.421h-6.557v-3.195h6.557v3.195zm19.794-19.805h-6.513v6.111l-6.279 8.261h-20.55l-6.28-8.26v-6.112H5.434V8.717H9.72v7.615h2.226V3.34h33.098v12.992h2.227V8.717h4.286v14.295h.011z" fill="#4D5152"/></svg>