<svg height="0" width="0">
    <defs>
        <clipPath id="svgPath-bg-section@1450">
            <path fill="#FFFFFF" stroke="#000000" stroke-width="1.5794" stroke-miterlimit="10" d="M273 12.3233C424.952 1.95898 474.975 12.3233 662.882 2.69572C850.788 -6.93185 973.118 12.3233 1009.59 12.3233C1046.07 12.3233 1286.19 12.3233 1402.71 26.3222C1519.23 40.3211 1603.39 17.3237 1732 12.3233C1836.65 8.25461 2000 2.69572 2000 2.69572V565.279C2000 565.279 1836.83 551.198 1732 549.531C1588.26 547.244 1627.64 574.029 1364.21 565.279C1100.78 556.53 1178.8 536.107 999.461 560.03C820.125 583.953 788.621 574.121 615.46 565.279C392.764 570.334 356.753 555.417 273 549.531C189.247 543.644 0 565.279 0 565.279V12.3233C0 12.3233 67.3421 24.6075 111 26.3222C174.452 28.8143 209.646 16.6445 273 12.3233Z"/>
        </clipPath>
    </defs>
</svg>