<svg height="0" width="0"><defs><clipPath id="svgPath-bg-section@768"><path fill="#FFF" stroke="#000" stroke-width="1.579" stroke-miterlimit="10" d="M168 15.349C249.464 16.478 276.942-8.5 376.271 3.257 475.6 15.013 537.013 15.35 556.238 15.35c19.225 0 145.79 0 207.203 9.072C824.854 33.493 869.33 20.577 937 15.35c49.479-3.823 126.5-12.092 126.5-12.092v367.041s-77.031-6.222-126.5-6.804c-75.804-.891-55.005 15.876-193.852 10.206s-97.727-18.905-192.25-3.402c-94.523 15.504-111.128 9.133-202.397 3.402-117.377 3.276-136.357-6.391-180.501-10.206-44.144-3.814-168 6.804-168 6.804V3.258s102.229 11.18 168 12.09z"/></clipPath></defs></svg>