<svg height="0" width="0">
    <defs>
        <clipPath id="svgPath-bg-section@1024">
            <path fill="#FFFFFF" stroke="#000000" stroke-width="1.5794" stroke-miterlimit="10" d="M247 12.3233C354.129 10.9658 389.033 12.3233 521.173 2.69572C653.313 -6.93185 739.338 12.3233 764.988 12.3233C790.638 12.3233 959.5 12.3233 1041.44 26.3222C1123.38 40.3211 1182.42 10.7425 1273 12.3233C1343.3 13.5502 1452.5 26.3222 1452.5 26.3222V549.531C1452.5 549.531 1343.08 547.786 1273 549.531C1171.84 552.049 1199.61 574.029 1014.36 565.279C829.113 556.53 883.975 536.107 757.863 560.03C631.75 583.953 609.596 574.121 487.825 565.279C331.221 570.334 305.897 555.417 247 549.531C188.103 543.644 0.5 549.531 0.5 549.531V12.3233C0.5 12.3233 65.267 26.3222 101 26.3222C161.531 26.3222 186.474 13.0903 247 12.3233Z"/>
        </clipPath>
    </defs>
</svg>