<svg width="77" height="77" viewBox="0 0 77 77" fill="none" xmlns="http://www.w3.org/2000/svg"><path d="M32.365 31.823h9.144v-1.655h2.587L38.5 12.934l-6.136 18.889zm-5.67 13.023l2.827-8.692-1.564-.511.797-2.467H10.633l16.062 11.67zm10.648 9.414l-7.4-5.383-.962 1.338-2.105-1.519-5.595 17.235 16.062-11.67zm12.241-7.218l-7.4 5.37.978 1.337-2.105 1.534L55.72 65.931l-6.136-18.889zm-3.082-13.866l2.827 8.693 1.58-.512.797 2.467 14.662-10.648H46.502z" fill="#69C9C9"/><path d="M38.5 30.168h-3.008v3.008H38.5v-3.008zm-11.471 8.337l-.93 2.86 2.861.93.93-2.86-2.861-.93zm6.153 11.055l-1.768 2.434 2.433 1.768 1.768-2.434-2.433-1.768zm13.079-1.782l-2.433 1.768 1.768 2.433 2.433-1.768-1.768-2.433zm2.787-12.135l-2.86.93.929 2.86 2.86-.929-.929-2.86z" fill="#4D5152"/><path d="M52.683 46.832l22.935-16.664h-28.35L38.502 3.203l-8.768 26.965H1.385l22.934 16.664-8.752 26.965L43.163 53.75l-1.774-2.437L21.28 65.931l5.595-17.235 2.105 1.52 1.76-2.437-20.107-14.603h18.122l-.797 2.466 2.857.933L38.5 12.933l5.595 17.235h-2.587v3.008h24.86L51.706 43.824l-.798-2.467-2.872.933 7.684 23.64-13.535-9.835-1.775 2.436 21.025 15.265-8.753-26.965z" fill="#4D5152"/></svg>