<svg width="57" height="57" viewBox="0 0 57 57" fill="none" xmlns="http://www.w3.org/2000/svg">
<path d="M31.7838 39.6217H25.2266V42.8168H31.7838V39.6217Z" fill="#E6E6E6"/>
<path d="M27.3867 54.7735H29.6133V53.6602H39.0762V50.4651H17.9238V53.6602H27.3867V54.7735Z" fill="#E6E6E6"/>
<path d="M46.168 16.3318H47.2812V8.71692H51.5674V23.0114H46.168V16.3318Z" fill="#E6E6E6"/>
<path d="M10.833 16.3318H9.71973V8.71692H5.43359V23.0114H10.833V16.3318Z" fill="#E6E6E6"/>
<path d="M31.6514 20.6625L33.6107 26.6631L28.5008 22.9559L23.3908 26.6631L25.3502 20.6625L20.2402 16.9553H26.5525L28.5008 10.9547L30.449 16.9553H36.7613L31.6514 20.6625Z" fill="#69C9C9"/>
<path d="M43.609 14.7288H32.0643L28.5018 3.75183L24.9393 14.7288H13.3945L22.735 21.5198L19.1725 32.4968L28.5129 25.7057L37.8533 32.4968L34.2908 21.5198L43.609 14.7288ZM28.5018 22.9559L23.3918 26.6632L25.34 20.6626L20.2301 16.9553H26.5424L28.5018 10.9548L30.45 16.9553H36.7623L31.6523 20.6626L33.6006 26.6632L28.5018 22.9559Z" fill="#4D5152"/>
<path d="M11.9453 18.5585H9.71875V20.785H11.9453V18.5585Z" fill="#4D5152"/>
<path d="M47.2812 18.5585H45.0547V20.785H47.2812V18.5585Z" fill="#4D5152"/>
<path d="M47.2818 6.49043V1.11328H9.71973V6.49043H3.20703V25.2381H9.71973V29.8805L17.123 39.6217H23.0012V42.8168H20.5742V48.2385H15.698V55.8867H27.3875V53.6602H17.9246V50.465H39.077V53.6602H29.6141V55.8867H41.3035V48.2385H36.4385V42.8168H34.0115V39.6217H39.8896L47.293 29.8805V25.2381H53.8057V6.49043H47.2818ZM34.2008 48.2385H22.8008V45.0434H34.2119V48.2385H34.2008ZM31.7738 42.8168H25.2166V39.6217H31.7738V42.8168ZM51.568 23.0115H45.0553V29.1234L38.7764 37.384H18.2252L11.9463 29.1234V23.0115H5.43359V8.71699H9.71973V16.3318H11.9463V3.33984H45.0441V16.3318H47.2707V8.71699H51.5568V23.0115H51.568Z" fill="#4D5152"/>
</svg>
